# xmcd CD database file
#
# Track frame offsets:
#	150
#	16766
#	37230
#	49032
#	70488
#	93276
#	108120
#	133892
#	152782
#	176652
#	192612
#	208264
#	241500
#
# Disc length: 3460 seconds
#
# Revision: 0
# Processed by: cddbd v1.5.1PL0 Copyright (c) Steve Scherf et al.
# Submitted via: CDex 1.51
#
DISCID=b50d820d
DTITLE=Kurt Tucholsky - Rheinsberg
DYEAR=1985
DGENRE=Hörbuch
TTITLE0=Psst!-Claire - Wölfchen!
TTITLE1=Eigentlich...-Na? - Ich finde es heiter.
TTITLE2=Noch brausten und dröhnten in ihnen die Geräusche der großen Stadt...
TTITLE3=Mein Name ist Herr Adler. Ich bin hier der Kastellan
TTITLE4=Sehssu, mein Affgen, das is nu deine Heimat.
TTITLE5=An dunklen Fensterläden kamen sie vorbei und langen Mauern...
TTITLE6=In der Nacht wachte ich auf.
TTITLE7=Claire? - Wolfgang? - Ich denke, wir fahren heute morgen ein wenig spazieren.
TTITLE8=Seltsam, wir haben einander doch ganz, und doch sehen wir uns.
TTITLE9=Aber hier lief der Kahn auf den Sand.
TTITLE10=Ein Kinematograph?
TTITLE11=Am Morgen gingen sie in die Felder. Hier war alles Herbst...
TTITLE12=Und sie gingen durch den dämmrigen Park...
EXTD=YEAR: 1985
EXTT0=
EXTT1=
EXTT2=
EXTT3=
EXTT4=
EXTT5=
EXTT6=
EXTT7=
EXTT8=
EXTT9=
EXTT10=
EXTT11=
EXTT12=
PLAYORDER=
